<svg width="202" height="40" viewBox="0 0 202 40" fill="none" xmlns="http://www.w3.org/2000/svg">
<g clip-path="url(#clip0_91_1848)">
<path d="M75.4774 10.2737V29.8069H71.5768V17.1021L66.3676 29.8069H63.4148L58.1764 17.1021V29.8069H54.2759V10.2737H58.705L64.8912 24.7982L71.0774 10.2737H75.481H75.4774Z" fill="#3D1063"/>
<path d="M93.0043 23.2275H81.7218C81.813 24.3478 82.203 25.2229 82.892 25.8563C83.5773 26.4897 84.4231 26.8082 85.4292 26.8082C86.8764 26.8082 87.908 26.1821 88.5205 24.9336H92.7272C92.2825 26.4275 91.4258 27.654 90.1645 28.6133C88.8996 29.5725 87.3503 30.0558 85.513 30.0558C84.0257 30.0558 82.6951 29.7263 81.514 29.0636C80.3329 28.4009 79.4143 27.4636 78.7545 26.2517C78.0947 25.0398 77.7666 23.6412 77.7666 22.0558C77.7666 20.4705 78.091 19.0426 78.7399 17.8307C79.3888 16.6188 80.3001 15.6851 81.4703 15.0334C82.6405 14.3817 83.9856 14.0558 85.5094 14.0558C87.0331 14.0558 88.2908 14.3744 89.45 15.0078C90.6093 15.6412 91.5133 16.5419 92.1512 17.7098C92.7928 18.8778 93.1136 20.2142 93.1136 21.7263C93.1136 22.2865 93.0772 22.7881 93.0006 23.2384L93.0043 23.2275ZM89.0746 20.5986C89.0563 19.5918 88.6954 18.7826 87.9882 18.1785C87.281 17.5707 86.4171 17.2705 85.3964 17.2705C84.4303 17.2705 83.6174 17.5634 82.9576 18.1529C82.2978 18.7387 81.8932 19.5551 81.7474 20.6023H89.0746V20.5986Z" fill="#3D1063"/>
<path d="M95.3302 17.827C95.9535 16.6151 96.8029 15.6815 97.8783 15.0297C98.9537 14.378 100.153 14.0522 101.473 14.0522C102.475 14.0522 103.434 14.2719 104.342 14.7112C105.253 15.1506 105.975 15.7327 106.514 16.4613V9.10206H110.469V29.8105H106.514V27.5149C106.029 28.2801 105.351 28.8952 104.48 29.3602C103.605 29.8252 102.595 30.0595 101.443 30.0595C100.142 30.0595 98.9537 29.7227 97.8783 29.0526C96.7993 28.3826 95.9499 27.4343 95.3302 26.2114C94.7068 24.9886 94.397 23.5863 94.397 22.0009C94.397 20.4156 94.7068 19.0426 95.3302 17.8307V17.827ZM105.986 19.6027C105.614 18.9217 105.111 18.3982 104.48 18.0357C103.849 17.6732 103.171 17.4902 102.446 17.4902C101.721 17.4902 101.053 17.6696 100.441 18.0211C99.8286 18.3762 99.3292 18.8924 98.95 19.5735C98.5709 20.2545 98.3777 21.06 98.3777 21.9936C98.3777 22.9272 98.5673 23.7437 98.95 24.443C99.3292 25.1423 99.8322 25.6805 100.456 26.0503C101.079 26.4238 101.742 26.6105 102.446 26.6105C103.15 26.6105 103.849 26.4275 104.48 26.065C105.111 25.7025 105.614 25.1789 105.986 24.4979C106.357 23.8169 106.543 23.0005 106.543 22.0485C106.543 21.0966 106.357 20.2801 105.986 19.5991V19.6027Z" fill="#3D1063"/>
<path d="M119.707 14.7478C120.589 14.2828 121.595 14.0485 122.729 14.0485C124.048 14.0485 125.24 14.3744 126.308 15.0261C127.377 15.6778 128.222 16.6078 128.846 17.8087C129.469 19.0133 129.779 20.4082 129.779 21.9936C129.779 23.5789 129.469 24.9849 128.846 26.2041C128.222 27.427 127.377 28.3716 126.308 29.0453C125.24 29.7153 124.048 30.0522 122.729 30.0522C121.577 30.0522 120.571 29.8252 119.707 29.3675C118.843 28.9098 118.15 28.3167 117.632 27.5918V29.8032H113.732V9.0984H117.632V16.5712C118.136 15.8243 118.825 15.2201 119.707 14.7515V14.7478ZM125.226 19.5771C124.847 18.8961 124.344 18.3799 123.72 18.0247C123.097 17.6696 122.426 17.4938 121.701 17.4938C120.975 17.4938 120.33 17.6769 119.71 18.0394C119.087 18.4018 118.588 18.9291 118.205 19.6211C117.826 20.313 117.632 21.1222 117.632 22.0558C117.632 22.9895 117.822 23.7986 118.205 24.4906C118.584 25.1826 119.087 25.7062 119.71 26.0723C120.334 26.4348 120.997 26.6178 121.701 26.6178C122.404 26.6178 123.097 26.4311 123.72 26.0577C124.344 25.6842 124.843 25.1533 125.226 24.4613C125.605 23.773 125.798 22.9492 125.798 21.9973C125.798 21.0453 125.609 20.2581 125.226 19.5771Z" fill="#3D1063"/>
<path d="M146.635 14.3011V29.8032H142.705V27.8444C142.202 28.5144 141.55 29.0453 140.741 29.4261C139.931 29.8069 139.056 30.0009 138.109 30.0009C136.902 30.0009 135.834 29.7446 134.904 29.232C133.975 28.7194 133.246 27.9652 132.717 26.9657C132.188 25.9661 131.922 24.7799 131.922 23.3959V14.3011H135.823V22.8357C135.823 24.0659 136.129 25.0142 136.742 25.6769C137.354 26.3396 138.189 26.6691 139.25 26.6691C140.31 26.6691 141.171 26.3396 141.787 25.6769C142.399 25.0142 142.705 24.0696 142.705 22.8357V14.3011H146.635Z" fill="#3D1063"/>
<path d="M149.854 17.827C150.477 16.6151 151.327 15.6815 152.402 15.0297C153.477 14.378 154.677 14.0522 155.996 14.0522C156.999 14.0522 157.958 14.2719 158.865 14.7112C159.777 15.1506 160.498 15.7327 161.038 16.4613V9.10206H164.993V29.8105H161.038V27.5149C160.553 28.2801 159.879 28.8952 159.004 29.3602C158.129 29.8252 157.119 30.0595 155.967 30.0595C154.666 30.0595 153.477 29.7227 152.402 29.0526C151.323 28.3826 150.474 27.4343 149.854 26.2114C149.231 24.9886 148.921 23.5863 148.921 22.0009C148.921 20.4156 149.231 19.0426 149.854 17.8307V17.827ZM160.509 19.6027C160.137 18.9217 159.634 18.3982 159.004 18.0357C158.373 17.6732 157.695 17.4902 156.97 17.4902C156.244 17.4902 155.577 17.6696 154.965 18.0211C154.352 18.3762 153.853 18.8924 153.474 19.5735C153.095 20.2545 152.901 21.06 152.901 21.9936C152.901 22.9272 153.091 23.7437 153.474 24.443C153.853 25.1423 154.356 25.6805 154.979 26.0503C155.603 26.4238 156.266 26.6105 156.97 26.6105C157.673 26.6105 158.373 26.4275 159.004 26.065C159.634 25.7025 160.137 25.1789 160.509 24.4979C160.881 23.8169 161.067 23.0005 161.067 22.0485C161.067 21.0966 160.881 20.2801 160.509 19.5991V19.6027Z" fill="#3D1063"/>
<path d="M168.187 17.827C168.81 16.6151 169.659 15.6815 170.735 15.0297C171.81 14.378 173.009 14.0522 174.329 14.0522C175.332 14.0522 176.29 14.2719 177.198 14.7112C178.109 15.1506 178.831 15.7327 179.371 16.4613V9.10206H183.326V29.8105H179.371V27.5149C178.886 28.2801 178.211 28.8952 177.337 29.3602C176.462 29.8252 175.452 30.0595 174.3 30.0595C172.999 30.0595 171.81 29.7227 170.735 29.0526C169.656 28.3826 168.806 27.4343 168.187 26.2114C167.563 24.9886 167.253 23.5863 167.253 22.0009C167.253 20.4156 167.563 19.0426 168.187 17.8307V17.827ZM178.846 19.6027C178.474 18.9217 177.971 18.3982 177.34 18.0357C176.71 17.6732 176.031 17.4902 175.306 17.4902C174.581 17.4902 173.914 17.6696 173.301 18.0211C172.689 18.3762 172.189 18.8924 171.81 19.5735C171.431 20.2545 171.238 21.06 171.238 21.9936C171.238 22.9272 171.427 23.7437 171.81 24.443C172.189 25.1423 172.692 25.6805 173.316 26.0503C173.939 26.4238 174.602 26.6105 175.306 26.6105C176.01 26.6105 176.71 26.4275 177.34 26.065C177.971 25.7025 178.474 25.1789 178.846 24.4979C179.218 23.8169 179.403 23.0005 179.403 22.0485C179.403 21.0966 179.218 20.2801 178.846 19.5991V19.6027Z" fill="#3D1063"/>
<path d="M201.356 14.3011L191.798 37.1368H187.646L190.988 29.4151L184.802 14.3048H189.177L193.161 25.135L197.2 14.3048H201.352L201.356 14.3011Z" fill="#3D1063"/>
<path d="M6.58719 12.346L12.2922 6.61602C13.9035 4.99771 16.5172 4.99771 18.1285 6.61602L39.8257 28.4082V7.98169C39.8257 3.57346 36.2678 0 31.8825 0H7.94692C3.55789 0 0 3.57346 0 7.98169V32.022C0 36.4302 3.55789 40.0037 7.94692 40.0037H28.2881L6.58719 18.2078C4.97594 16.5895 4.97594 13.9643 6.58719 12.346Z" fill="#3D1063"/>
<path d="M16.5974 22.1876C18.1139 23.7108 20.5745 23.7108 22.091 22.1876C23.6075 20.6645 23.6075 18.1931 22.091 16.67L16.5974 22.1876Z" fill="#3D1063"/>
<path d="M13.2875 18.1236C12.9813 18.4311 13.1307 19.0828 13.6192 19.5735C14.1113 20.0677 14.7566 20.2178 15.0628 19.9066C15.369 19.5991 15.2195 18.9474 14.7311 18.4567C14.2389 17.9625 13.5937 17.8124 13.2875 18.1236Z" fill="#3D1063"/>
<path d="M19.8235 15.1286C20.1297 14.8211 19.9803 14.1693 19.4918 13.6787C18.9997 13.1844 18.3544 13.0343 18.0482 13.3455C17.742 13.6531 17.8915 14.3048 18.38 14.7954C18.8721 15.2897 19.5173 15.4398 19.8235 15.1286Z" fill="#3D1063"/>
</g>
<defs>
<clipPath id="clip0_91_1848">
<rect width="201.356" height="40" fill="white"/>
</clipPath>
</defs>
</svg>

